REM MD5 7ce874793d1d4f94c7b2bf116b4afada
FILE "SuperLite 1500 Series - Wizard's Harmony R (Japan).bin" BINARY
  TRACK 01 MODE2/2352
    INDEX 01 00:00:00
  TRACK 02 AUDIO
    INDEX 00 33:17:01
    INDEX 01 33:19:01
  TRACK 03 AUDIO
    INDEX 00 35:22:70
    INDEX 01 35:24:70
  TRACK 04 AUDIO
    INDEX 00 37:39:24
    INDEX 01 37:41:24
  TRACK 05 AUDIO
    INDEX 00 39:13:22
    INDEX 01 39:15:22
  TRACK 06 AUDIO
    INDEX 00 42:22:73
    INDEX 01 42:24:73
REM LEADOUT 47:10:25
